# Blender v2.93.5 OBJ File: '5x1arch.blend'
# www.blender.org
mtllib 5x1arch_wood.mtl
o Platform.Full.IronTeeth
v -2.338785 0.000000 0.838849
v -2.338785 0.838838 0.838850
v -2.316382 0.838838 0.922552
v -2.316382 0.000000 0.922552
v -2.377668 0.838838 0.983804
v -2.377668 0.000000 0.983804
v -2.461358 0.838838 0.961354
v -2.461358 0.000000 0.961354
v -2.483761 0.000000 0.877652
v -2.483761 0.838838 0.877652
v -2.422474 0.000000 0.816400
v -2.422474 0.838838 0.816400
v -2.338785 0.838838 0.838850
v -2.338785 0.000000 0.838849
v -2.338850 0.000000 0.161215
v -2.338850 0.838838 0.161215
v -2.422552 0.838838 0.183618
v -2.422552 0.000000 0.183618
v -2.483804 0.838838 0.122332
v -2.483804 0.000000 0.122332
v -2.461354 0.838838 0.038642
v -2.461354 0.000000 0.038642
v -2.377652 0.000000 0.016239
v -2.377652 0.838838 0.016239
v -2.316400 0.000000 0.077525
v -2.316400 0.838838 0.077526
v -2.338850 0.838838 0.161215
v -2.338850 0.000000 0.161215
v 2.338785 0.000000 0.838849
v 2.338785 0.838838 0.838850
v 2.316382 0.838838 0.922552
v 2.316382 0.000000 0.922552
v 2.377668 0.838838 0.983804
v 2.377668 0.000000 0.983804
v 2.461358 0.838838 0.961354
v 2.461358 0.000000 0.961354
v 2.483761 0.000000 0.877652
v 2.483761 0.838838 0.877652
v 2.422474 0.000000 0.816400
v 2.422474 0.838838 0.816400
v 2.338785 0.838838 0.838850
v 2.338785 0.000000 0.838849
v 2.338850 0.000000 0.161215
v 2.338850 0.838838 0.161215
v 2.422552 0.838838 0.183618
v 2.422552 0.000000 0.183618
v 2.483804 0.838838 0.122332
v 2.483804 0.000000 0.122332
v 2.461354 0.838838 0.038642
v 2.461354 0.000000 0.038642
v 2.377652 0.000000 0.016239
v 2.377652 0.838838 0.016239
v 2.316400 0.000000 0.077525
v 2.316400 0.838838 0.077526
v 2.338850 0.838838 0.161215
v 2.338850 0.000000 0.161215
vt 0.491451 0.998338
vt 0.491451 0.501428
vt 0.447630 0.501428
vt 0.447630 0.998338
vt 0.366103 0.501428
vt 0.366104 0.998338
vt 0.325341 0.501428
vt 0.325341 0.998338
vt 0.284577 0.998338
vt 0.284577 0.501428
vt 0.203049 0.998338
vt 0.203049 0.501428
vt 0.159229 0.501428
vt 0.159229 0.998338
vt 0.491451 0.998338
vt 0.491451 0.501428
vt 0.447630 0.501428
vt 0.447630 0.998338
vt 0.366103 0.501428
vt 0.366104 0.998338
vt 0.325341 0.501428
vt 0.325341 0.998338
vt 0.284577 0.998338
vt 0.284577 0.501428
vt 0.203049 0.998338
vt 0.203049 0.501428
vt 0.159229 0.501428
vt 0.159229 0.998338
vt 0.491451 0.998338
vt 0.447630 0.501428
vt 0.491451 0.501428
vt 0.447630 0.998338
vt 0.366103 0.501428
vt 0.366104 0.998338
vt 0.325341 0.501428
vt 0.325341 0.998338
vt 0.284577 0.998338
vt 0.284577 0.501428
vt 0.203049 0.998338
vt 0.203049 0.501428
vt 0.159229 0.501428
vt 0.159229 0.998338
vt 0.491451 0.998338
vt 0.447630 0.501428
vt 0.491451 0.501428
vt 0.447630 0.998338
vt 0.366103 0.501428
vt 0.366104 0.998338
vt 0.325341 0.501428
vt 0.325341 0.998338
vt 0.284577 0.998338
vt 0.284577 0.501428
vt 0.203049 0.998338
vt 0.203049 0.501428
vt 0.159229 0.501428
vt 0.159229 0.998338
vn 0.7080 0.0000 -0.7062
vn 0.7079 -0.0002 -0.7063
vn 0.9657 -0.0005 0.2595
vn 0.9661 -0.0000 0.2580
vn 0.2594 0.0001 0.9658
vn 0.2597 -0.0000 0.9657
vn -0.7074 0.0010 0.7068
vn -0.7081 0.0000 0.7061
vn -0.9659 0.0000 -0.2591
vn -0.2592 0.0000 -0.9658
vn -0.2587 0.0013 -0.9659
vn 0.7079 0.0001 -0.7063
vn 0.7062 0.0000 0.7080
vn 0.7063 0.0003 0.7079
vn -0.2594 -0.0004 0.9658
vn -0.2582 -0.0000 0.9661
vn -0.9657 0.0002 0.2596
vn -0.9657 -0.0000 0.2595
vn -0.7068 0.0011 -0.7074
vn -0.7062 -0.0000 -0.7080
vn 0.2591 -0.0000 -0.9659
vn 0.9659 -0.0000 -0.2590
vn 0.9659 0.0014 -0.2588
vn 0.7063 0.0001 0.7079
vn 0.7062 0.0003 0.7080
vn -0.7080 0.0000 -0.7062
vn -0.9658 -0.0004 0.2594
vn -0.7079 -0.0002 -0.7063
vn -0.9662 -0.0000 0.2579
vn -0.2594 0.0001 0.9658
vn -0.2598 -0.0000 0.9657
vn 0.7074 0.0008 0.7068
vn 0.7080 0.0000 0.7062
vn 0.9659 0.0000 -0.2591
vn 0.2592 -0.0000 -0.9658
vn 0.2587 0.0013 -0.9659
vn -0.7079 -0.0000 -0.7063
vn -0.7062 0.0002 0.7080
vn 0.2595 -0.0005 0.9657
vn -0.7063 0.0003 0.7079
vn 0.2582 -0.0000 0.9661
vn 0.9657 0.0002 0.2596
vn 0.9657 -0.0000 0.2596
vn 0.7068 0.0010 -0.7074
vn 0.7062 -0.0000 -0.7080
vn -0.2591 -0.0000 -0.9659
vn -0.9659 -0.0000 -0.2589
vn -0.9659 0.0014 -0.2588
vn -0.7063 -0.0000 0.7079
vn -0.7062 0.0003 0.7080
usemtl Material
s 1
f 1/1/1 2/2/2 3/3/3
f 4/4/4 1/1/1 3/3/3
f 4/4/4 3/3/3 5/5/5
f 6/6/6 4/4/4 5/5/5
f 6/6/6 5/5/5 7/7/7
f 8/8/8 6/6/6 7/7/7
f 9/9/9 8/8/8 7/7/7
f 10/10/9 9/9/9 7/7/7
f 11/11/10 9/9/9 10/10/9
f 12/12/11 11/11/10 10/10/9
f 11/11/10 12/12/11 13/13/12
f 14/14/1 11/11/10 13/13/12
f 15/15/13 16/16/14 17/17/15
f 18/18/16 15/15/13 17/17/15
f 18/18/16 17/17/15 19/19/17
f 20/20/18 18/18/16 19/19/17
f 20/20/18 19/19/17 21/21/19
f 22/22/20 20/20/18 21/21/19
f 23/23/21 22/22/20 21/21/19
f 24/24/21 23/23/21 21/21/19
f 25/25/22 23/23/21 24/24/21
f 26/26/23 25/25/22 24/24/21
f 25/25/22 26/26/23 27/27/24
f 28/28/25 25/25/22 27/27/24
f 29/29/26 31/30/27 30/31/28
f 32/32/29 31/30/27 29/29/26
f 32/32/29 33/33/30 31/30/27
f 34/34/31 33/33/30 32/32/29
f 34/34/31 35/35/32 33/33/30
f 36/36/33 35/35/32 34/34/31
f 37/37/34 35/35/32 36/36/33
f 38/38/34 35/35/32 37/37/34
f 39/39/35 38/38/34 37/37/34
f 40/40/36 38/38/34 39/39/35
f 39/39/35 41/41/37 40/40/36
f 42/42/26 41/41/37 39/39/35
f 43/43/38 45/44/39 44/45/40
f 46/46/41 45/44/39 43/43/38
f 46/46/41 47/47/42 45/44/39
f 48/48/43 47/47/42 46/46/41
f 48/48/43 49/49/44 47/47/42
f 50/50/45 49/49/44 48/48/43
f 51/51/46 49/49/44 50/50/45
f 52/52/46 49/49/44 51/51/46
f 53/53/47 52/52/46 51/51/46
f 54/54/48 52/52/46 53/53/47
f 53/53/47 55/55/49 54/54/48
f 56/56/50 55/55/49 53/53/47
o Platform.Uncovered.Folktails
v -2.399991 0.857118 0.900009
v -2.483761 0.838838 0.877652
v -2.461358 0.838838 0.961354
v -2.377668 0.838838 0.983804
v -2.422474 0.838838 0.816400
v -2.316382 0.838838 0.922552
v -2.338785 0.838838 0.838850
v -2.400009 0.857118 0.100009
v -2.377652 0.838838 0.016239
v -2.461354 0.838838 0.038642
v -2.483804 0.838838 0.122332
v -2.316400 0.838838 0.077526
v -2.422552 0.838838 0.183618
v -2.338850 0.838838 0.161215
v 2.399991 0.857118 0.900009
v 2.483761 0.838838 0.877652
v 2.461358 0.838838 0.961354
v 2.377668 0.838838 0.983804
v 2.422474 0.838838 0.816400
v 2.316382 0.838838 0.922552
v 2.338785 0.838838 0.838850
v 2.400009 0.857118 0.100009
v 2.377652 0.838838 0.016239
v 2.461354 0.838838 0.038642
v 2.483804 0.838838 0.122332
v 2.316400 0.838838 0.077526
v 2.422552 0.838838 0.183618
v 2.338850 0.838838 0.161215
vt 0.688707 0.188193
vt 0.733998 0.176106
vt 0.721886 0.221360
vt 0.676638 0.233498
vt 0.700863 0.142989
vt 0.643503 0.200381
vt 0.655615 0.155127
vt 0.688717 0.188213
vt 0.676629 0.142922
vt 0.721884 0.155034
vt 0.734021 0.200282
vt 0.643512 0.176057
vt 0.700905 0.233417
vt 0.655650 0.221304
vt 0.688707 0.188193
vt 0.721886 0.221360
vt 0.733998 0.176106
vt 0.676638 0.233498
vt 0.700863 0.142989
vt 0.643503 0.200381
vt 0.655615 0.155127
vt 0.688717 0.188213
vt 0.721884 0.155034
vt 0.676629 0.142922
vt 0.734021 0.200282
vt 0.643512 0.176057
vt 0.700905 0.233417
vt 0.655650 0.221304
vn 0.0070 1.0000 0.0035
vn -0.1013 0.9945 -0.0271
vn -0.1463 0.9784 0.1464
vn 0.0261 0.9945 0.1012
vn -0.0538 0.9786 -0.1985
vn 0.1995 0.9784 0.0536
vn 0.0735 0.9945 -0.0746
vn -0.0035 1.0000 0.0070
vn 0.0271 0.9945 -0.1013
vn -0.1461 0.9784 -0.1461
vn -0.1012 0.9945 0.0261
vn 0.1990 0.9785 -0.0537
vn -0.0536 0.9784 0.1995
vn 0.0746 0.9945 0.0735
vn -0.0070 1.0000 0.0035
vn 0.1463 0.9783 0.1465
vn 0.1013 0.9945 -0.0271
vn -0.0261 0.9945 0.1012
vn 0.0538 0.9786 -0.1986
vn -0.1995 0.9784 0.0536
vn -0.0735 0.9945 -0.0746
vn 0.0035 1.0000 0.0070
vn 0.1460 0.9785 -0.1460
vn -0.0271 0.9945 -0.1013
vn 0.1012 0.9945 0.0261
vn -0.1990 0.9785 -0.0537
vn 0.0536 0.9784 0.1995
vn -0.0746 0.9945 0.0735
usemtl Material.007
s 1
f 57/57/51 58/58/52 59/59/53
f 60/60/54 57/57/51 59/59/53
f 61/61/55 58/58/52 57/57/51
f 57/57/51 60/60/54 62/62/56
f 63/63/57 61/61/55 57/57/51
f 63/63/57 57/57/51 62/62/56
f 64/64/58 65/65/59 66/66/60
f 67/67/61 64/64/58 66/66/60
f 68/68/62 65/65/59 64/64/58
f 64/64/58 67/67/61 69/69/63
f 70/70/64 68/68/62 64/64/58
f 70/70/64 64/64/58 69/69/63
f 71/71/65 73/72/66 72/73/67
f 74/74/68 73/72/66 71/71/65
f 75/75/69 71/71/65 72/73/67
f 71/71/65 76/76/70 74/74/68
f 77/77/71 71/71/65 75/75/69
f 77/77/71 76/76/70 71/71/65
f 78/78/72 80/79/73 79/80/74
f 81/81/75 80/79/73 78/78/72
f 82/82/76 78/78/72 79/80/74
f 78/78/72 83/83/77 81/81/75
f 84/84/78 78/78/72 82/82/76
f 84/84/78 83/83/77 78/78/72
