# Blender v2.93.5 OBJ File: '5x1arch.blend'
# www.blender.org
mtllib 5x1arch_const.mtl
o ConstructionSite1x1
v -2.460456 0.309897 0.155729
v -2.454467 0.000000 0.149740
v -2.402364 0.000000 0.171321
v -2.402364 0.309897 0.179791
v -2.350260 0.000000 0.149740
v -2.344272 0.309897 0.155729
v -2.328678 0.000000 0.097636
v -2.320209 0.309897 0.097636
v -2.350260 0.000000 0.045533
v -2.344272 0.309897 0.039544
v -2.402364 0.000000 0.023951
v -2.402364 0.309897 0.015482
v -2.454467 0.000000 0.045533
v -2.460456 0.309897 0.039544
v -2.476049 0.000000 0.097636
v -2.484518 0.309897 0.097637
v -2.454467 0.000000 0.149740
v -2.460456 0.309897 0.155729
v -2.460456 0.309897 0.960456
v -2.454467 -0.000000 0.954467
v -2.402364 -0.000000 0.976049
v -2.402364 0.309897 0.984519
v -2.350260 -0.000000 0.954467
v -2.344272 0.309897 0.960456
v -2.328678 -0.000000 0.902364
v -2.320209 0.309897 0.902364
v -2.350260 -0.000000 0.850260
v -2.344272 0.309897 0.844272
v -2.402364 -0.000000 0.828678
v -2.402364 0.309897 0.820209
v -2.454467 -0.000000 0.850260
v -2.460456 0.309897 0.844272
v -2.476049 -0.000000 0.902364
v -2.484518 0.309897 0.902364
v -2.454467 -0.000000 0.954467
v -2.460456 0.309897 0.960456
v -2.402364 0.322340 0.902364
v -2.344272 0.309897 0.960456
v -2.320209 0.309897 0.902364
v -2.344272 0.309897 0.844272
v -2.402364 0.309897 0.984519
v -2.402364 0.309897 0.820209
v -2.460456 0.309897 0.960456
v -2.460456 0.309897 0.844272
v -2.484518 0.309897 0.902364
v -2.402364 0.322340 0.097637
v -2.344272 0.309897 0.155729
v -2.320209 0.309897 0.097636
v -2.344272 0.309897 0.039544
v -2.402364 0.309897 0.179791
v -2.402364 0.309897 0.015482
v -2.460456 0.309897 0.155729
v -2.460456 0.309897 0.039544
v -2.484518 0.309897 0.097637
v 2.460455 0.309897 0.155729
v 2.454467 0.000000 0.149740
v 2.402364 0.000000 0.171322
v 2.402364 0.309897 0.179791
v 2.350260 0.000000 0.149740
v 2.344271 0.309897 0.155729
v 2.328678 0.000000 0.097636
v 2.320209 0.309897 0.097636
v 2.350260 0.000000 0.045533
v 2.344271 0.309897 0.039544
v 2.402364 0.000000 0.023951
v 2.402364 0.309897 0.015482
v 2.454467 0.000000 0.045533
v 2.460455 0.309897 0.039544
v 2.476048 0.000000 0.097636
v 2.484518 0.309897 0.097637
v 2.454467 0.000000 0.149740
v 2.460455 0.309897 0.155729
v 2.460455 0.309897 0.960456
v 2.454467 -0.000000 0.954467
v 2.402364 -0.000000 0.976049
v 2.402364 0.309897 0.984519
v 2.350260 -0.000000 0.954467
v 2.344271 0.309897 0.960456
v 2.328678 -0.000000 0.902364
v 2.320209 0.309897 0.902364
v 2.350260 -0.000000 0.850260
v 2.344271 0.309897 0.844272
v 2.402364 -0.000000 0.828678
v 2.402364 0.309897 0.820209
v 2.454467 -0.000000 0.850260
v 2.460455 0.309897 0.844272
v 2.476048 -0.000000 0.902364
v 2.484518 0.309897 0.902364
v 2.454467 -0.000000 0.954467
v 2.460455 0.309897 0.960456
v 2.402364 0.322340 0.902364
v 2.344271 0.309897 0.960456
v 2.320209 0.309897 0.902364
v 2.344271 0.309897 0.844272
v 2.402364 0.309897 0.984519
v 2.402364 0.309897 0.820209
v 2.460455 0.309897 0.960456
v 2.460455 0.309897 0.844272
v 2.484518 0.309897 0.902364
v 2.402364 0.322340 0.097637
v 2.344271 0.309897 0.155729
v 2.320209 0.309897 0.097636
v 2.344271 0.309897 0.039544
v 2.402364 0.309897 0.179791
v 2.402364 0.309897 0.015482
v 2.460455 0.309897 0.155729
v 2.460455 0.309897 0.039544
v 2.484518 0.309897 0.097637
vt 0.012176 0.995817
vt 0.012594 0.504479
vt 0.073057 0.504496
vt 0.072638 0.995817
vt 0.133519 0.504513
vt 0.133101 0.995817
vt 0.193981 0.504530
vt 0.193562 0.995817
vt 0.254443 0.504546
vt 0.254024 0.995817
vt 0.314906 0.504563
vt 0.314486 0.995817
vt 0.375368 0.504580
vt 0.374948 0.995817
vt 0.435831 0.504596
vt 0.435410 0.995817
vt 0.496293 0.504613
vt 0.495872 0.995817
vt 0.012176 0.995817
vt 0.012594 0.504479
vt 0.073057 0.504496
vt 0.072638 0.995817
vt 0.133519 0.504513
vt 0.133101 0.995817
vt 0.193981 0.504530
vt 0.193562 0.995817
vt 0.254443 0.504546
vt 0.254024 0.995817
vt 0.314906 0.504563
vt 0.314486 0.995817
vt 0.375368 0.504580
vt 0.374948 0.995817
vt 0.435831 0.504596
vt 0.435410 0.995817
vt 0.496293 0.504613
vt 0.495872 0.995817
vt 0.688416 0.187871
vt 0.711901 0.244571
vt 0.664929 0.244571
vt 0.631715 0.211357
vt 0.745116 0.211357
vt 0.631715 0.164385
vt 0.745116 0.164385
vt 0.664929 0.131170
vt 0.711901 0.131171
vt 0.688416 0.187871
vt 0.711901 0.244571
vt 0.664929 0.244571
vt 0.631715 0.211357
vt 0.745116 0.211357
vt 0.631715 0.164385
vt 0.745116 0.164385
vt 0.664929 0.131170
vt 0.711901 0.131171
vt 0.012176 0.995817
vt 0.073057 0.504496
vt 0.012594 0.504479
vt 0.072638 0.995817
vt 0.133519 0.504513
vt 0.133101 0.995817
vt 0.193981 0.504530
vt 0.193562 0.995817
vt 0.254443 0.504546
vt 0.254024 0.995817
vt 0.314906 0.504563
vt 0.314486 0.995817
vt 0.375368 0.504580
vt 0.374948 0.995817
vt 0.435831 0.504596
vt 0.435410 0.995817
vt 0.496293 0.504613
vt 0.495872 0.995817
vt 0.012176 0.995817
vt 0.073057 0.504496
vt 0.012594 0.504479
vt 0.072638 0.995817
vt 0.133519 0.504513
vt 0.133101 0.995817
vt 0.193981 0.504530
vt 0.193562 0.995817
vt 0.254443 0.504546
vt 0.254024 0.995817
vt 0.314906 0.504563
vt 0.314486 0.995817
vt 0.375368 0.504580
vt 0.374948 0.995817
vt 0.435831 0.504596
vt 0.435410 0.995817
vt 0.496293 0.504613
vt 0.495872 0.995817
vt 0.688416 0.187871
vt 0.664929 0.244571
vt 0.711901 0.244571
vt 0.631715 0.211357
vt 0.745116 0.211357
vt 0.631715 0.164385
vt 0.745116 0.164385
vt 0.664929 0.131170
vt 0.711901 0.131171
vt 0.688416 0.187871
vt 0.664929 0.244571
vt 0.711901 0.244571
vt 0.631715 0.211357
vt 0.745116 0.211357
vt 0.631715 0.164385
vt 0.745116 0.164385
vt 0.664929 0.131170
vt 0.711901 0.131171
vn -0.7069 -0.0268 0.7068
vn -0.0000 -0.0273 0.9996
vn 0.7068 -0.0273 0.7068
vn 0.9996 -0.0273 0.0000
vn 0.7068 -0.0273 -0.7068
vn -0.0000 -0.0273 -0.9996
vn -0.7068 -0.0273 -0.7068
vn -0.9996 -0.0273 0.0000
vn -0.7068 -0.0268 0.7069
vn -0.0000 1.0000 0.0000
vn 0.1059 0.9887 0.1059
vn 0.1497 0.9887 0.0000
vn 0.1059 0.9887 -0.1059
vn -0.0000 0.9887 0.1497
vn 0.0000 0.9887 -0.1497
vn -0.1059 0.9887 0.1059
vn -0.1059 0.9887 -0.1059
vn -0.1497 0.9887 0.0000
vn 0.7069 -0.0268 0.7068
vn -0.7068 -0.0273 0.7068
vn 0.7068 -0.0268 0.7069
usemtl Default_OBJ
s 1
f 1/1/1 2/2/1 3/3/2
f 4/4/2 1/1/1 3/3/2
f 4/4/2 3/3/2 5/5/3
f 6/6/3 4/4/2 5/5/3
f 6/6/3 5/5/3 7/7/4
f 8/8/4 6/6/3 7/7/4
f 8/8/4 7/7/4 9/9/5
f 10/10/5 8/8/4 9/9/5
f 10/10/5 9/9/5 11/11/6
f 12/12/6 10/10/5 11/11/6
f 12/12/6 11/11/6 13/13/7
f 14/14/7 12/12/6 13/13/7
f 14/14/7 13/13/7 15/15/8
f 16/16/8 14/14/7 15/15/8
f 16/16/8 15/15/8 17/17/9
f 18/18/9 16/16/8 17/17/9
f 19/19/1 20/20/1 21/21/2
f 22/22/2 19/19/1 21/21/2
f 22/22/2 21/21/2 23/23/3
f 24/24/3 22/22/2 23/23/3
f 24/24/3 23/23/3 25/25/4
f 26/26/4 24/24/3 25/25/4
f 26/26/4 25/25/4 27/27/5
f 28/28/5 26/26/4 27/27/5
f 28/28/5 27/27/5 29/29/6
f 30/30/6 28/28/5 29/29/6
f 30/30/6 29/29/6 31/31/7
f 32/32/7 30/30/6 31/31/7
f 32/32/7 31/31/7 33/33/8
f 34/34/8 32/32/7 33/33/8
f 34/34/8 33/33/8 35/35/9
f 36/36/9 34/34/8 35/35/9
f 37/37/10 38/38/11 39/39/12
f 37/37/10 39/39/12 40/40/13
f 37/37/10 41/41/14 38/38/11
f 37/37/10 40/40/13 42/42/15
f 37/37/10 43/43/16 41/41/14
f 37/37/10 42/42/15 44/44/17
f 37/37/10 45/45/18 43/43/16
f 37/37/10 44/44/17 45/45/18
f 46/46/10 47/47/11 48/48/12
f 46/46/10 48/48/12 49/49/13
f 46/46/10 50/50/14 47/47/11
f 46/46/10 49/49/13 51/51/15
f 46/46/10 52/52/16 50/50/14
f 46/46/10 51/51/15 53/53/17
f 46/46/10 54/54/18 52/52/16
f 46/46/10 53/53/17 54/54/18
f 55/55/19 57/56/2 56/57/19
f 58/58/2 57/56/2 55/55/19
f 58/58/2 59/59/20 57/56/2
f 60/60/20 59/59/20 58/58/2
f 60/60/20 61/61/8 59/59/20
f 62/62/8 61/61/8 60/60/20
f 62/62/8 63/63/7 61/61/8
f 64/64/7 63/63/7 62/62/8
f 64/64/7 65/65/6 63/63/7
f 66/66/6 65/65/6 64/64/7
f 66/66/6 67/67/5 65/65/6
f 68/68/5 67/67/5 66/66/6
f 68/68/5 69/69/4 67/67/5
f 70/70/4 69/69/4 68/68/5
f 70/70/4 71/71/21 69/69/4
f 72/72/21 71/71/21 70/70/4
f 73/73/19 75/74/2 74/75/19
f 76/76/2 75/74/2 73/73/19
f 76/76/2 77/77/20 75/74/2
f 78/78/20 77/77/20 76/76/2
f 78/78/20 79/79/8 77/77/20
f 80/80/8 79/79/8 78/78/20
f 80/80/8 81/81/7 79/79/8
f 82/82/7 81/81/7 80/80/8
f 82/82/7 83/83/6 81/81/7
f 84/84/6 83/83/6 82/82/7
f 84/84/6 85/85/5 83/83/6
f 86/86/5 85/85/5 84/84/6
f 86/86/5 87/87/4 85/85/5
f 88/88/4 87/87/4 86/86/5
f 88/88/4 89/89/21 87/87/4
f 90/90/21 89/89/21 88/88/4
f 91/91/10 93/92/18 92/93/16
f 91/91/10 94/94/17 93/92/18
f 91/91/10 92/93/16 95/95/14
f 91/91/10 96/96/15 94/94/17
f 91/91/10 95/95/14 97/97/11
f 91/91/10 98/98/13 96/96/15
f 91/91/10 97/97/11 99/99/12
f 91/91/10 99/99/12 98/98/13
f 100/100/10 102/101/18 101/102/16
f 100/100/10 103/103/17 102/101/18
f 100/100/10 101/102/16 104/104/14
f 100/100/10 105/105/15 103/103/17
f 100/100/10 104/104/14 106/106/11
f 100/100/10 107/107/13 105/105/15
f 100/100/10 106/106/11 108/108/12
f 100/100/10 108/108/12 107/107/13
